<svg xmlns="http://www.w3.org/2000/svg" viewBox="0 0 128 128"><g fill="currentColor"><path d="M8.021 14.894a3.96 3.96 0 0 1 3.958-3.959H19.6a.286.286 0 0 1 .212.48l-1.671 1.814a1.54 1.54 0 0 1-1.129.497H12c-.656 0-1.188.533-1.188 1.189v2.994a.697.697 0 0 1-.697.697H8.721a.696.696 0 0 1-.697-.697v-3.015zM31.729 25.106a3.96 3.96 0 0 1-3.958 3.959h-3.239a3.96 3.96 0 0 1-3.958-3.959v-5.668c0-.385.144-.756.405-1.041l1.889-2.05a.287.287 0 0 1 .497.191v8.55c0 .656.532 1.188 1.188 1.188h3.2c.656 0 1.188-.532 1.188-1.188V14.915c0-.656-.532-1.189-1.188-1.189h-3.721c-.426 0-.832.18-1.123.492L11.812 26.276h6.667c.386 0 .697.312.697.698v1.394a.696.696 0 0 1-.697.697H9.494a1.477 1.477 0 0 1-1.476-1.477v-.738c0-.371.138-.726.391-1L20.85 12.335a4.34 4.34 0 0 1 3.194-1.4h3.724a3.96 3.96 0 0 1 3.958 3.959v10.212z" style="fill:#587dbd;fill-opacity:1" transform="translate(-39.604 -40.263)scale(5.21317)"/></g></svg>